<svg width="92" height="105" viewBox="0 0 92 105" fill="none" xmlns="http://www.w3.org/2000/svg">
<g filter="url(#filter0_d_74_393)">
<mask id="path-1-outside-1_74_393" maskUnits="userSpaceOnUse" x="12" y="8" width="67" height="80" fill="black">
<rect fill="white" x="12" y="8" width="67" height="80"/>
<path fill-rule="evenodd" clip-rule="evenodd" d="M32.9649 54.6234L29.2745 48.9848C26.7546 45.1347 21.3873 43.73 17.2817 45.8407L18.2383 45.3489C17.2194 45.8727 16.7309 47.1786 17.1504 48.2639L22.2587 61.4805C23.0685 63.5757 25.1368 66.5389 26.8506 68.0274C26.8506 68.0274 37.1272 76.5333 37.1272 79.7224V83.7597H53.7765L57.9389 75.4351L62.1012 83.7597H66.2636V79.7224C66.2636 76.5333 72.5439 66.4889 72.5439 66.4889C73.6999 64.5364 74.6635 61.0968 74.6635 58.8131V42.019C74.5882 38.3008 71.4276 35.2874 67.5277 35.2874C65.5767 35.2874 63.9964 36.7941 63.9964 38.6542V39.9993C63.9964 36.2811 60.8358 33.2677 56.9359 33.2677C54.9849 33.2677 53.4046 34.7744 53.4046 36.6345V37.9796C53.4046 34.2614 50.244 31.248 46.344 31.248C44.393 31.248 42.8127 32.7547 42.8127 34.6148V35.96C42.8127 35.3624 42.7489 34.8874 42.6255 34.5109L41.5483 17.1674C41.4027 14.8221 39.426 13 37.1272 13C34.8124 13 32.9649 14.8632 32.9649 17.1615V33.8117V54.6234ZM62.176 50.4611H66.3383V67.1104H62.176V50.4611ZM53.8512 50.4611H58.0135V67.1104H53.8512V50.4611ZM45.5256 50.4611H49.688V67.1104H45.5256V50.4611Z"/>
</mask>
<path fill-rule="evenodd" clip-rule="evenodd" d="M32.9649 54.6234L29.2745 48.9848C26.7546 45.1347 21.3873 43.73 17.2817 45.8407L18.2383 45.3489C17.2194 45.8727 16.7309 47.1786 17.1504 48.2639L22.2587 61.4805C23.0685 63.5757 25.1368 66.5389 26.8506 68.0274C26.8506 68.0274 37.1272 76.5333 37.1272 79.7224V83.7597H53.7765L57.9389 75.4351L62.1012 83.7597H66.2636V79.7224C66.2636 76.5333 72.5439 66.4889 72.5439 66.4889C73.6999 64.5364 74.6635 61.0968 74.6635 58.8131V42.019C74.5882 38.3008 71.4276 35.2874 67.5277 35.2874C65.5767 35.2874 63.9964 36.7941 63.9964 38.6542V39.9993C63.9964 36.2811 60.8358 33.2677 56.9359 33.2677C54.9849 33.2677 53.4046 34.7744 53.4046 36.6345V37.9796C53.4046 34.2614 50.244 31.248 46.344 31.248C44.393 31.248 42.8127 32.7547 42.8127 34.6148V35.96C42.8127 35.3624 42.7489 34.8874 42.6255 34.5109L41.5483 17.1674C41.4027 14.8221 39.426 13 37.1272 13C34.8124 13 32.9649 14.8632 32.9649 17.1615V33.8117V54.6234ZM62.176 50.4611H66.3383V67.1104H62.176V50.4611ZM53.8512 50.4611H58.0135V67.1104H53.8512V50.4611ZM45.5256 50.4611H49.688V67.1104H45.5256V50.4611Z" fill="white"/>
<path d="M32.9649 54.6234L29.4821 56.9028L37.1272 68.5838V54.6234H32.9649ZM29.2745 48.9848L32.7572 46.7054L29.2745 48.9848ZM17.1504 48.2639L13.2679 49.7645H13.2679L17.1504 48.2639ZM22.2587 61.4805L26.1411 59.9799L22.2587 61.4805ZM26.8506 68.0274L24.1213 71.1699L24.1586 71.2024L24.1967 71.2339L26.8506 68.0274ZM37.1272 83.7597H32.9649V87.9221H37.1272V83.7597ZM53.7765 83.7597V87.9221H56.349L57.4995 85.6212L53.7765 83.7597ZM57.9389 75.4351L61.6618 73.5736L57.9389 66.1278L54.216 73.5736L57.9389 75.4351ZM62.1012 83.7597L58.3783 85.6212L59.5288 87.9221H62.1012V83.7597ZM66.2636 83.7597V87.9221H70.4259V83.7597H66.2636ZM72.5439 66.4889L76.0731 68.6955L76.0998 68.6529L76.1254 68.6096L72.5439 66.4889ZM74.6635 42.019H78.8259V41.9769L78.825 41.9347L74.6635 42.019ZM42.6255 34.5109L38.4711 34.7689L38.5042 35.3009L38.6702 35.8074L42.6255 34.5109ZM41.5483 17.1674L37.394 17.4254L41.5483 17.1674ZM32.9649 17.1615H28.8025H32.9649ZM66.3383 50.4611H70.5006V46.2988H66.3383V50.4611ZM66.3383 67.1104V71.2728H70.5006V67.1104H66.3383ZM62.176 67.1104H58.0136V71.2728H62.176V67.1104ZM58.0135 50.4611H62.1759V46.2988H58.0135V50.4611ZM58.0135 67.1104V71.2728H62.1759V67.1104H58.0135ZM53.8512 67.1104H49.6888V71.2728H53.8512V67.1104ZM49.688 50.4611H53.8503V46.2988H49.688V50.4611ZM49.688 67.1104V71.2728H53.8503V67.1104H49.688ZM45.5256 67.1104H41.3633V71.2728H45.5256V67.1104ZM36.4476 52.344L32.7572 46.7054L25.7917 51.2642L29.4821 56.9028L36.4476 52.344ZM32.7572 46.7054C29.0627 41.0605 21.366 39.0608 15.3786 42.1389L19.1848 49.5425C21.4085 48.3993 24.4466 49.2088 25.7917 51.2642L32.7572 46.7054ZM19.1848 49.5425L20.1414 49.0507L16.3352 41.6471L15.3786 42.1389L19.1848 49.5425ZM16.3352 41.6471C13.3832 43.1647 12.0976 46.7366 13.2679 49.7645L21.0328 46.7633C21.2225 47.2542 21.1812 47.7122 21.0542 48.0522C20.9276 48.3911 20.6482 48.7902 20.1414 49.0507L16.3352 41.6471ZM13.2679 49.7645L18.3763 62.9811L26.1411 59.9799L21.0328 46.7633L13.2679 49.7645ZM18.3763 62.9811C19.4281 65.7025 21.8894 69.2315 24.1213 71.1699L29.58 64.8849C28.3842 63.8463 26.7089 61.4488 26.1411 59.9799L18.3763 62.9811ZM26.8506 68.0274C24.1967 71.2339 24.1964 71.2337 24.1962 71.2335C24.1962 71.2335 24.196 71.2333 24.196 71.2333C24.1959 71.2332 24.196 71.2333 24.1962 71.2335C24.1967 71.2339 24.1977 71.2348 24.1994 71.2362C24.2028 71.239 24.2085 71.2438 24.2166 71.2505C24.2328 71.264 24.2583 71.2853 24.2925 71.3139C24.3609 71.3712 24.464 71.458 24.5967 71.5708C24.8624 71.7966 25.2459 72.1259 25.7076 72.5319C26.6353 73.3477 27.8591 74.4561 29.0712 75.6475C30.3018 76.857 31.4336 78.0675 32.2288 79.0959C32.6284 79.6127 32.8711 79.9919 32.9965 80.2319C33.1653 80.5548 32.9649 80.322 32.9649 79.7224H41.2895C41.2895 78.3255 40.768 77.1293 40.3747 76.3767C39.9381 75.5411 39.378 74.7325 38.8142 74.0035C37.6825 72.54 36.2452 71.0261 34.9066 69.7105C33.5496 68.3768 32.2043 67.1594 31.2051 66.2807C30.7034 65.8395 30.284 65.4793 29.9877 65.2275C29.8394 65.1015 29.7217 65.0024 29.6396 64.9335C29.5985 64.8991 29.5663 64.8722 29.5436 64.8533C29.5322 64.8439 29.5233 64.8364 29.5168 64.831C29.5135 64.8283 29.5108 64.8261 29.5088 64.8244C29.5078 64.8236 29.507 64.8229 29.5063 64.8223C29.5059 64.822 29.5055 64.8217 29.5053 64.8215C29.505 64.8212 29.5046 64.821 26.8506 68.0274ZM32.9649 79.7224V83.7597H41.2895V79.7224H32.9649ZM37.1272 87.9221H53.7765V79.5974H37.1272V87.9221ZM57.4995 85.6212L61.6618 77.2965L54.216 73.5736L50.0536 81.8983L57.4995 85.6212ZM54.216 77.2965L58.3783 85.6212L65.8241 81.8983L61.6618 73.5736L54.216 77.2965ZM62.1012 87.9221H66.2636V79.5974H62.1012V87.9221ZM70.4259 83.7597V79.7224H62.1012V83.7597H70.4259ZM70.4259 79.7224C70.4259 79.8714 70.4714 79.3639 71.0776 77.9326C71.5936 76.7143 72.3099 75.289 73.0668 73.8863C73.8166 72.4967 74.5714 71.1934 75.1415 70.2334C75.4255 69.755 75.6615 69.3656 75.8252 69.0978C75.907 68.9641 75.9706 68.8609 76.013 68.7924C76.0341 68.7582 76.05 68.7327 76.0602 68.7163C76.0652 68.7082 76.0689 68.7023 76.0711 68.6988C76.0722 68.6971 76.0729 68.6959 76.0732 68.6954C76.0734 68.6951 76.0735 68.695 76.0735 68.695C76.0734 68.695 76.0734 68.6951 76.0734 68.6951C76.0733 68.6953 76.0731 68.6955 72.5439 66.4889C69.0146 64.2822 69.0144 64.2825 69.0142 64.2828C69.0141 64.283 69.0139 64.2833 69.0137 64.2836C69.0133 64.2843 69.0128 64.2851 69.0122 64.286C69.011 64.2879 69.0095 64.2904 69.0076 64.2935C69.0037 64.2997 68.9983 64.3083 68.9915 64.3192C68.9779 64.3411 68.9585 64.3723 68.9337 64.4125C68.8841 64.4927 68.8127 64.6084 68.7228 64.7555C68.543 65.0496 68.2884 65.4698 67.9837 65.9829C67.3762 67.0059 66.5609 68.413 65.7406 69.9332C64.9274 71.4402 64.0737 73.124 63.4121 74.6859C62.8408 76.0349 62.1012 77.9789 62.1012 79.7224H70.4259ZM76.1254 68.6096C76.9487 67.2192 77.6009 65.5001 78.0481 63.8878C78.4947 62.2779 78.8259 60.4542 78.8259 58.8131H70.5012C70.5012 59.4557 70.3506 60.4936 70.0263 61.6626C69.7028 62.8291 69.2951 63.8061 68.9623 64.3681L76.1254 68.6096ZM78.8259 58.8131V42.019H70.5012V58.8131H78.8259ZM78.825 41.9347C78.7011 35.8171 73.5573 31.1251 67.5277 31.1251V39.4497C69.298 39.4497 70.4753 40.7844 70.502 42.1033L78.825 41.9347ZM67.5277 31.1251C63.4673 31.1251 59.8341 34.3104 59.8341 38.6542H68.1587C68.1587 38.9385 68.0309 39.1635 67.9026 39.2858C67.7779 39.4048 67.6361 39.4497 67.5277 39.4497V31.1251ZM59.8341 38.6542V39.9993H68.1587V38.6542H59.8341ZM68.1587 39.9993C68.1587 33.7974 62.9452 29.1054 56.9359 29.1054V37.4301C58.7264 37.4301 59.8341 38.7648 59.8341 39.9993H68.1587ZM56.9359 29.1054C52.8754 29.1054 49.2422 32.2907 49.2422 36.6345H57.5669C57.5669 36.9188 57.4391 37.1438 57.3108 37.2661C57.186 37.3851 57.0442 37.4301 56.9359 37.4301V29.1054ZM49.2422 36.6345V37.9796H57.5669V36.6345H49.2422ZM57.5669 37.9796C57.5669 31.7777 52.3534 27.0857 46.344 27.0857V35.4104C48.1345 35.4104 49.2422 36.7451 49.2422 37.9796H57.5669ZM46.344 27.0857C42.2836 27.0857 38.6504 30.271 38.6504 34.6148H46.9751C46.9751 34.8991 46.8472 35.1241 46.719 35.2464C46.5942 35.3654 46.4524 35.4104 46.344 35.4104V27.0857ZM38.6504 34.6148V35.96H46.9751V34.6148H38.6504ZM46.9751 35.96C46.9751 35.097 46.8869 34.1483 46.5807 33.2144L38.6702 35.8074C38.6375 35.7078 38.6341 35.6613 38.638 35.6912C38.6419 35.7211 38.6504 35.8059 38.6504 35.96H46.9751ZM46.7798 34.2529L45.7027 16.9094L37.394 17.4254L38.4711 34.7689L46.7798 34.2529ZM45.7027 16.9094C45.4198 12.355 41.6098 8.83766 37.1272 8.83766V17.1623C37.1639 17.1623 37.23 17.1767 37.3005 17.2428C37.3674 17.3054 37.3905 17.3694 37.394 17.4254L45.7027 16.9094ZM37.1272 8.83766C32.5039 8.83766 28.8025 12.5741 28.8025 17.1615H37.1272V17.1623V8.83766ZM28.8025 17.1615V33.8117H37.1272V17.1615H28.8025ZM28.8025 33.8117V54.6234H37.1272V33.8117H28.8025ZM62.176 54.6234H66.3383V46.2988H62.176V54.6234ZM62.176 50.4611V67.1104H70.5006V50.4611H62.176ZM66.3383 62.9481H62.176V71.2728H66.3383V62.9481ZM66.3383 67.1104V50.4611H58.0136V67.1104H66.3383ZM53.8512 54.6234H58.0135V46.2988H53.8512V54.6234ZM53.8512 50.4611V67.1104H62.1759V50.4611H53.8512ZM58.0135 62.9481H53.8512V71.2728H58.0135V62.9481ZM58.0135 67.1104V50.4611H49.6888V67.1104H58.0135ZM45.5256 54.6234H49.688V46.2988H45.5256V54.6234ZM45.5256 50.4611V67.1104H53.8503V50.4611H45.5256ZM49.688 62.9481H45.5256V71.2728H49.688V62.9481ZM49.688 67.1104V50.4611H41.3633V67.1104H49.688Z" fill="black" fill-opacity="0.8" mask="url(#path-1-outside-1_74_393)"/>
</g>
<defs>
<filter id="filter0_d_74_393" x="0.351318" y="0.512969" width="90.9616" height="104.059" filterUnits="userSpaceOnUse" color-interpolation-filters="sRGB">
<feFlood flood-opacity="0" result="BackgroundImageFix"/>
<feColorMatrix in="SourceAlpha" type="matrix" values="0 0 0 0 0 0 0 0 0 0 0 0 0 0 0 0 0 0 127 0" result="hardAlpha"/>
<feOffset dy="4.16234"/>
<feGaussianBlur stdDeviation="6.24351"/>
<feColorMatrix type="matrix" values="0 0 0 0 0 0 0 0 0 0 0 0 0 0 0 0 0 0 0.2 0"/>
<feBlend mode="normal" in2="BackgroundImageFix" result="effect1_dropShadow_74_393"/>
<feBlend mode="normal" in="SourceGraphic" in2="effect1_dropShadow_74_393" result="shape"/>
</filter>
</defs>
</svg>
