<svg width="30" height="30" viewBox="0 0 30 30" fill="none" xmlns="http://www.w3.org/2000/svg">
<circle cx="15" cy="15" r="13.875" stroke="#D0F224" stroke-width="2.25"/>
<path d="M16.3007 17.3501C16.3725 16.2466 17.2353 15.4496 18.098 14.4482C18.9069 13.4877 19.5 12.5886 19.5 11.1989C19.5 8.86921 18.116 7.5 15.5637 7.5C13.0294 7.5 11.5196 9.23706 11.25 11.5463L13.8742 11.9142C13.982 10.9741 14.4673 10.0136 15.4559 10.0136C16.2467 10.0136 16.6242 10.5245 16.6242 11.3828C16.6242 12.3433 16.067 12.8951 15.4199 13.6921C14.5572 14.7139 13.7843 15.6335 13.7843 17.1866V17.7793H16.3007V17.3501ZM15.0245 22.5C15.9412 22.5 16.6601 21.7234 16.6601 20.7629C16.6601 19.7616 15.9412 18.985 15.0245 18.985C14.1258 18.985 13.3889 19.7616 13.3889 20.7629C13.3889 21.7234 14.1258 22.5 15.0245 22.5Z" fill="#D0F224"/>
</svg>
