<svg width="56" height="62" viewBox="0 0 56 62" fill="none" xmlns="http://www.w3.org/2000/svg">
<path fill-rule="evenodd" clip-rule="evenodd" d="M30.9187 9.30068C30.896 7.78105 30.7124 5.66804 29.9975 3.84126C32.2982 4.27222 33.4307 6.84836 33.9083 8.38408C33.0228 8.65584 32.0138 8.96459 30.9187 9.30068ZM18.8771 29.4561C19.0818 32.6675 27.6185 33.3686 28.0978 40.8912C28.4748 46.8089 24.9262 50.8564 19.813 51.1763C13.6762 51.5592 10.2982 47.9764 10.2982 47.9764L11.5981 42.5009C11.5981 42.5009 14.9987 45.04 17.7203 44.8694C19.4978 44.7586 20.1331 43.3274 20.0697 42.3143C19.8033 38.1251 12.8524 38.3712 12.4121 31.4886C12.0433 25.6963 15.8859 19.8268 24.3673 19.2963C27.6347 19.0921 29.3083 19.917 29.3083 19.917L27.3683 27.0971C27.3683 27.0971 25.2057 26.1224 22.6401 26.2818C18.8787 26.5214 18.8381 28.869 18.8771 29.4561ZM24.7741 1.99981C25.4857 1.98533 26.0853 2.13971 26.5971 2.47258C25.7782 2.8939 24.9853 3.49853 24.2428 4.28649C22.3174 6.33036 20.8421 9.5047 20.2539 12.5665C18.4179 13.1293 16.6225 13.6791 14.9717 14.1858C16.0132 9.36641 20.0947 2.13328 24.7741 1.99981ZM28.9046 9.9181C26.8867 10.537 24.6834 11.2126 22.4721 11.8896C23.0944 9.53377 24.2724 7.18758 25.7201 5.65026C26.2579 5.07779 27.0118 4.44099 27.9038 4.07596C28.7438 5.80625 28.9241 8.26017 28.9046 9.9181ZM37.7109 7.21812C37.7061 7.21973 37.0123 7.43199 35.8392 7.7922C35.6442 7.16328 35.355 6.3898 34.9439 5.6131C33.6181 3.10948 31.6748 1.78282 29.3286 1.77944H29.3205C29.158 1.77944 28.9956 1.79391 28.8331 1.80855C28.7648 1.72637 28.695 1.64452 28.6202 1.56733C27.5982 0.485098 26.2854 -0.0425123 24.7159 0.00267466C21.684 0.0895108 18.6651 2.25543 16.2182 6.10372C14.4943 8.81156 13.1864 12.2144 12.8143 14.8468C9.33399 15.913 6.89843 16.6607 6.84643 16.6768C5.09004 17.222 5.03479 17.2766 4.80407 18.9153C4.63022 20.1551 0.0336914 55.3382 0.0336914 55.3382L38.174 61.867V7.14077C37.9855 7.15363 37.8165 7.1874 37.7109 7.21812Z" fill="white"/>
<path fill-rule="evenodd" clip-rule="evenodd" d="M39.4342 61.7189L55.2564 57.8257C55.2564 57.8257 48.4437 12.24 48.4014 11.9264C48.3575 11.6144 48.0813 11.4408 47.8539 11.4215C47.6264 11.4022 43.1712 11.3362 43.1712 11.3362C43.1712 11.3362 40.4546 8.72633 39.4342 7.73737V61.7189Z" fill="white"/>
</svg>
